<?xml version="1.0" standalone="no"?>
<!DOCTYPE svg PUBLIC "-//W3C//DTD SVG 20010904//EN"
 "http://www.w3.org/TR/2001/REC-SVG-20010904/DTD/svg10.dtd">
<svg version="1.0" xmlns="http://www.w3.org/2000/svg"
 width="174.000000pt" height="179.000000pt" viewBox="0 0 174.000000 179.000000"
 preserveAspectRatio="xMidYMid meet">

<g transform="translate(0.000000,179.000000) scale(0.100000,-0.100000)"
fill="#000000" stroke="none">
<path d="M700 1751 c-541 -119 -822 -695 -577 -1186 136 -274 399 -443 717
-462 330 -19 677 205 803 520 63 156 74 385 28 542 -83 283 -309 501 -598 576
-114 29 -267 34 -373 10z m365 -75 c33 -9 103 -37 155 -63 170 -85 319 -258
376 -437 93 -294 13 -599 -211 -803 -156 -143 -348 -212 -555 -200 -122 7
-193 26 -310 83 -82 40 -108 60 -190 143 -108 108 -163 200 -202 337 -31 111
-32 286 0 397 68 239 234 424 462 515 97 39 176 51 300 48 63 -2 142 -11 175
-20z"/>
<path d="M713 1580 c-234 -61 -405 -226 -485 -466 -18 -57 -23 -91 -23 -189 0
-205 56 -339 204 -485 123 -122 248 -180 424 -197 l67 -6 0 36 c0 35 -1 36
-47 42 -114 14 -163 27 -238 64 -188 93 -305 258 -336 472 -11 75 -10 98 5
175 38 194 155 353 324 438 63 32 189 66 244 66 37 0 38 1 38 35 l0 35 -52 -1
c-29 0 -86 -9 -125 -19z"/>
<path d="M352 903 l3 -198 174 -3 c131 -2 187 1 225 12 52 16 110 61 121 97
12 37 24 18 27 -43 3 -63 3 -63 33 -63 l30 0 3 78 3 77 64 0 65 0 0 40 0 39
-62 3 -63 3 -3 38 -3 37 140 0 140 0 3 -157 3 -158 33 -3 32 -3 0 160 0 161
55 0 55 0 0 40 0 40 -265 0 -265 0 0 -60 c0 -33 -4 -60 -10 -60 -5 0 -10 4
-10 9 0 20 -56 75 -95 92 -132 61 -280 -35 -279 -180 0 -33 7 -69 17 -88 l18
-33 -56 0 -55 0 0 160 0 160 -40 0 -40 0 2 -197z m392 113 c98 -41 103 -177 8
-222 -51 -24 -100 -13 -141 32 -30 33 -33 40 -29 85 6 54 27 84 73 105 38 17
49 17 89 0z"/>
</g>
</svg>
